<?xml version="1.0" encoding="utf-8" ?><svg xmlns="http://www.w3.org/2000/svg" xmlns:xlink="http://www.w3.org/1999/xlink" width="1025" height="1025" viewBox="0 0 1025 1025"><path fill="#6A3010" transform="scale(1.00093 1.00093)" d="M507.407 100.251C533.662 99.1484 542.529 111.802 559.444 128.709L588.414 157.129L710.041 277.741L824.455 391.173L858.955 425.446C865.009 431.504 871.823 437.757 877.214 444.341C891.637 461.955 890.93 486.46 876.678 503.689C868.899 512.955 857.789 518.792 845.745 519.939C822.56 522.028 812.429 504.826 797.026 491.856L797.077 723.716L797.02 786.92C797.002 812.044 799.869 834.216 780.238 853.84C760.75 873.321 742.121 871.996 716.901 871.979L675.004 871.98L515.386 872.027L354.589 871.985L307.308 871.965C285.499 871.899 265.122 873.38 247.512 857.734C225.895 838.527 227.864 818.106 227.859 791.803L227.976 738.946L227.911 579.437L227.883 524.474C227.863 513.979 228.095 501.698 227.502 491.384C214.711 502.973 204.649 517.042 186.397 519.692C175.386 521.291 163.87 517.867 155.07 511.196C144.876 503.333 138.19 491.769 136.462 479.011C134.923 467.724 137.921 456.287 144.799 447.205C152.32 437.401 170.818 420.905 180.113 411.614L268.114 323.769L409.635 183.569L453.391 139.569C463.037 129.728 473.188 119.086 483.412 109.879C489.749 104.172 499.047 101.374 507.407 100.251ZM481.212 458.26L522.319 458.345C528.78 458.357 537.585 458.705 543.755 458.3C544.537 442.008 543.549 425.174 543.95 408.835C544.027 405.695 544.022 402.173 543.909 399.036C531.382 398.901 518.853 398.889 506.325 398.999C498.32 399.011 488.811 398.762 480.908 399.089L481.01 437.616C481.032 443.632 480.783 452.463 481.212 458.26ZM441.143 839.417C484.035 838.646 528.066 839.688 571.125 839.347C574.927 839.362 580.294 839.545 583.975 839.308C584.532 822.632 584.152 804.201 584.162 787.406L584.106 686.848L584.126 628.856C584.13 619.036 584.305 609.119 583.865 599.291C583.553 592.325 578.285 584.668 570.715 584.41C541.952 583.432 513.04 584.506 484.224 584.117C474.822 583.99 464.247 583.74 454.884 584.185C446.416 585.53 441.436 591.895 441.16 600.277C440.818 610.642 440.983 621.134 440.996 631.504L441.033 689.192L441.024 785.746C441.025 803.33 440.753 821.876 441.143 839.417ZM515.564 167.789C522.679 170.272 536.371 185.307 542.567 191.413C559.043 207.708 575.377 224.146 591.565 240.727C617.209 266.819 644.739 293.378 670.811 319.21L759.204 407.5C776.373 424.838 793.647 442.073 811.025 459.202C820.023 468.126 828.704 477.602 838.657 485.403C841.749 487.983 847.071 487.125 850.198 485.408C856.289 482.066 857.84 471.932 853.587 466.622C847.104 458.528 837.641 450.329 830.202 442.933L763.915 377.565L613.611 228.34C583.813 198.635 554.279 168.673 524.027 139.428C519.388 134.943 515.996 132.675 509.387 133.041C505.239 134.264 503.381 135.234 500.16 138.341C478.217 159.508 456.677 181.303 434.931 202.668L260.469 376.282C239.163 397.195 217.981 418.232 196.923 439.394C188.236 448.087 177.351 457.476 170.258 467.459C166.338 472.978 169.047 482.472 175.087 485.768C177.786 487.226 180.968 487.499 183.876 486.523C188.137 485.131 200.17 472.45 203.973 468.731L239.852 433.096L415.499 258.752C437.838 236.182 460.367 213.8 483.082 191.609C490.104 184.87 497.036 177.601 504.193 171.099C507.631 167.975 511.044 167.143 515.564 167.789ZM483.375 235.271C487.465 235.004 486.1 235.163 487.757 230.928C486.281 232.36 484.82 233.808 483.375 235.271ZM510.24 211.293C512.787 211.059 513.629 211.728 515.094 209.758L514.087 209.585L513.41 209.459C511.405 209.106 510.985 209.542 510.24 211.293ZM466.954 251.672C471.353 251.382 470.39 251.14 471.616 247.073C470.053 248.597 468.499 250.129 466.954 251.672ZM260.491 457.649L260.572 711.346L260.48 784.308C260.457 795.296 260.193 807.253 260.743 818.176C260.912 821.555 265.475 829.807 268.143 832.391C275.757 839.767 284.636 839.398 294.441 839.226C299.613 839.136 304.858 839.158 309.961 838.855C310.377 838.357 310.424 838.136 310.718 837.545C309.646 835.721 307.43 834.061 305.786 832.629C299.742 827.362 295.314 823.341 292.371 815.705C290.26 810.23 289.166 804.693 288.998 798.803C288.365 776.653 288.562 754.373 288.576 732.211L288.48 631.894L288.505 491.681C288.514 482.351 287.145 436.826 289.747 430.586C288.314 430.408 287.673 430.311 286.504 431.435C277.831 439.775 268.491 448.721 260.491 457.649ZM764.147 457.481C755.501 448.997 745.46 438.565 736.564 430.627C736.042 432.913 736.027 448.426 735.954 451.952C735.512 477.569 735.383 503.19 735.566 528.81L735.583 789.037C735.587 799.954 735.794 808.349 730.965 818.469C726.988 826.802 719.814 831.572 713.531 838.01C713.638 838.374 713.746 838.738 713.853 839.103C719.929 839.357 726.009 839.498 732.09 839.525C742.616 839.53 749.682 838.37 757.425 830.634C765.037 823.027 764 815.096 764.059 805.387C764.106 797.513 764.043 789.684 764.018 781.846L763.892 708.83L764.147 457.481Z"/><path fill="#F0C8A8" transform="scale(1.00093 1.00093)" d="M487.757 230.928C491.996 226.808 508.345 209.909 511.848 207.62C513.745 208.013 513.416 208.197 515.094 209.758L514.087 209.585L513.41 209.459C511.405 209.106 510.985 209.542 510.24 211.293C512.787 211.059 513.629 211.728 515.094 209.758C530.867 224.323 548.019 242.261 563.289 257.532L652.897 347.045C675.115 368.91 697.184 390.927 719.101 413.093C722.005 415.999 735.461 428.545 736.564 430.627C736.042 432.913 736.027 448.426 735.954 451.952C735.512 477.569 735.383 503.19 735.566 528.81L735.583 789.037C735.587 799.954 735.794 808.349 730.965 818.469C726.988 826.802 719.814 831.572 713.531 838.01C713.638 838.374 713.746 838.738 713.853 839.103C711.917 839.595 693.789 839.216 690.388 839.224L617.467 839.312C616.83 781.368 617.431 722.257 617.429 664.208L617.384 618.766C617.359 610.318 617.788 598.605 616.334 590.519C613.26 573.416 597.347 555.704 579.765 552.924C565.392 550.651 547.875 551.547 533.021 551.567L460.75 551.482C445.166 551.476 433.478 554.012 422.017 565.247C405.875 581.07 408.11 600.038 408.179 620.543L408.297 669.231L408.368 839.277L339.84 839.08C334.706 839.089 313.494 839.536 309.961 838.855C310.377 838.357 310.424 838.136 310.718 837.545C309.646 835.721 307.43 834.061 305.786 832.629C299.742 827.362 295.314 823.341 292.371 815.705C290.26 810.23 289.166 804.693 288.998 798.803C288.365 776.653 288.562 754.373 288.576 732.211L288.48 631.894L288.505 491.681C288.514 482.351 287.145 436.826 289.747 430.586L289.732 430.248L288.295 429.806C293.003 424.135 303.027 414.88 308.719 409.283L343.777 374.431L466.954 251.672C471.353 251.382 470.39 251.14 471.616 247.073C475.441 243.455 479.626 239.054 483.375 235.271C487.465 235.004 486.1 235.163 487.757 230.928ZM481.212 458.26L522.319 458.345C528.78 458.357 537.585 458.705 543.755 458.3C544.537 442.008 543.549 425.174 543.95 408.835C544.027 405.695 544.022 402.173 543.909 399.036C531.382 398.901 518.853 398.889 506.325 398.999C498.32 399.011 488.811 398.762 480.908 399.089L481.01 437.616C481.032 443.632 480.783 452.463 481.212 458.26Z"/><path fill="#6A3010" transform="scale(1.00093 1.00093)" d="M477.31 366.618C486.628 365.811 504.015 366.575 513.821 366.454C521.534 366.359 541.94 365.93 548.346 367.015C553.535 367.866 558.468 369.87 562.782 372.879C580.116 385.058 575.445 408.721 575.939 427.292C576.189 436.686 576.701 455.038 575.245 463.596C574.395 468.672 572.423 473.495 569.473 477.713C563.898 485.562 556.759 488.72 547.607 490.344C543.551 490.883 522.384 490.844 517.716 490.694C507.006 490.35 485.32 491.577 476.01 490.023C471.054 489.177 466.341 487.264 462.197 484.418C445.088 472.674 448.372 450.709 448.386 432.471C448.395 421.59 447.176 403.606 448.839 393.533C449.599 388.951 451.386 384.6 454.067 380.808C459.619 372.925 467.903 368.231 477.31 366.618ZM481.212 458.26L522.319 458.345C528.78 458.357 537.585 458.705 543.755 458.3C544.537 442.008 543.549 425.174 543.95 408.835C544.027 405.695 544.022 402.173 543.909 399.036C531.382 398.901 518.853 398.889 506.325 398.999C498.32 399.011 488.811 398.762 480.908 399.089L481.01 437.616C481.032 443.632 480.783 452.463 481.212 458.26Z"/><path fill="#F0C8A8" fill-opacity="0.92941177" transform="scale(1.00093 1.00093)" d="M466.954 251.672C468.499 250.129 470.053 248.597 471.616 247.073C470.39 251.14 471.353 251.382 466.954 251.672Z"/><path fill="#F0C8A8" fill-opacity="0.50588238" transform="scale(1.00093 1.00093)" d="M510.24 211.293C510.985 209.542 511.405 209.106 513.41 209.459L514.087 209.585L515.094 209.758C513.629 211.728 512.787 211.059 510.24 211.293Z"/><path fill="#F0C8A8" fill-opacity="0.94901961" transform="scale(1.00093 1.00093)" d="M483.375 235.271C484.82 233.808 486.281 232.36 487.757 230.928C486.1 235.163 487.465 235.004 483.375 235.271Z"/></svg>